<svg xmlns="http://www.w3.org/2000/svg" viewBox="0 0 849.8 121.7" fill="black">
  <path d="M507.4 101.5c-8.9 7.5-20 11.5-32 11.5-28.2 0-50.2-22.8-50.2-51.9 0-28.6 21.5-51.6 48.9-52.3 10.3.4 17.3 2.5 24.8 7.7v10h5.2V2.3H499v4.6c-7.7-3.1-15.6-4.6-23.5-4.6C441.6 2.3 414 28.6 414 61c0 32.3 27.6 58.6 61.5 58.6 13.2 0 25.8-5 35.6-14.1l.9-.8-3.6-3.9-1 .7zM357.9 9.2h5.2l-18.8 47.4-23.7-47.4h5V3.9h-22.3v5.3h5.1L336 65.6v47.2h-7.1v5.3h26.8v-5.3h-8v-47l22.6-56.6h5V3.9h-17.4zm-256.4 0h5V3.9H84.9v5.3h5.3v103.6h-5.3v5.3h21.6v-5.3h-5zm151.9 54.5L227.8 3.9h-13.4v5.3h5.7v103.6h-5.7v5.3h17.8v-5.3h-5.1V28.1l24.5 58.2 24.3-61.2v87.7h-5.6v5.3h22v-5.3h-5V9.2h5V3.9h-15.1zm-92.2 0L135.6 3.9h-13.4v5.3h5.7v103.6h-5.7v5.3H140v-5.3h-5.1V28.1l24.4 58.2 24.4-61.2v87.7l-4.5.1-.6.1-.5.8v4.3H200v-5.3h-4.9V9.2h4.9V3.9h-15zM582 9.2h5.1V4l-22.2-.1v5.3h5.6v25h-33.4v-25h5V3.9h-22v5.3h5.5v103.6h-5.5v5.3h22v-5.3h-5V40.5h33.4v72.3h-5.6v5.3h22.3v-5.3H582zM47.1 9.1h5.6v79.5c0 19.2-12.9 24.6-19.7 24.7-6.3-.1-18.6-5-19.7-22.3l-.1-1.3-11.1 1.7.2 1.2c.7 5 2.2 9.4 4.7 13.6 3.2 5.4 12.8 13.5 25.9 13.5 16.2 0 24.4-11.2 25.9-13.4 5-7.8 5.4-17 5.4-27.4V9.3h5V3.9H47.1v5.2zM655 2.3c-33.9 0-61.5 26.3-61.5 58.7 0 32.3 27.6 58.7 61.5 58.7s61.5-26.3 61.5-58.7S688.9 2.3 655 2.3zm-.3 110.7c-28 0-49.9-22.8-49.9-52 0-14 5.2-27.1 14.6-36.9 9.4-9.8 22.1-15.2 35.6-15.2 27.7 0 50.3 23.6 50.3 52.6-.1 28.8-22.3 51.5-50.6 51.5zM786.2 2.3c-33.9 0-61.5 26.3-61.5 58.7 0 32.3 27.6 58.7 61.5 58.7s61.5-26.3 61.5-58.7-27.6-58.7-61.5-58.7zm.3 110.7c-27.9-.2-50.5-23.5-50.5-52 0-14 5.2-27.1 14.6-36.9 9.4-9.8 22.1-15.2 35.6-15.2 27.7 0 50.3 23.6 50.3 52.6 0 28.7-22 51.3-50 51.5z" class="logo-fill"/>
</svg>
