<?xml version="1.0" encoding="UTF-8" standalone="no"?>
<!-- Generator: Gravit.io -->
<svg xmlns="http://www.w3.org/2000/svg" xmlns:xlink="http://www.w3.org/1999/xlink" style="isolation:isolate" viewBox="0 0 120 120" width="120px" height="120px"><defs><clipPath id="_clipPath_cMTEOPIh6gbS8nODyLe42TDYyI39rBam"><rect width="120" height="120"/></clipPath></defs><g clip-path="url(#_clipPath_cMTEOPIh6gbS8nODyLe42TDYyI39rBam)"><path d=" M 61.185 100.216 L 92.261 100.216 L 92.261 100.216 L 75.644 61.175 L 58.033 19.5 L 39.562 60.277 L 21.594 100.216 L 53.868 100.216 L 53.868 98.155 L 50.716 91.391 L 58.033 91.761 L 65.351 91.391 L 61.185 98.155 L 61.185 100.216 Z  M 71.522 39.329 L 79.047 39.329 L 71.522 43.793 L 79.971 62.269 L 108.237 46.018 C 111.238 44.362 113 41.906 113 39.329 L 113 30.59 C 113 25.763 107.068 21.851 99.75 21.851 L 62.304 21.851 L 69.986 39.329 L 69.986 39.329 L 71.522 39.329 Z  M 113 100.216 L 113 100.5 L 113 83.022 L 87.652 83.022 L 94.565 100.216 L 94.565 100.216 L 113 100.216 Z  M 37.336 39.329 L 7 39.329 L 7 21.851 L 53.087 21.851 L 45.406 39.329 L 45.406 39.091 L 45.406 39.091 L 45.406 39.329 L 37.336 39.329 Z  M 33.116 62.269 L 11.763 76.333 C 8.755 77.989 7.011 80.438 7 83.022 L 7 91.761 C 7 96.588 10.436 100.216 17.754 100.216 L 18.522 100.216 L 35.42 62.269 L 33.116 62.269 L 35.42 62.269 L 33.116 62.269 Z " fill-rule="evenodd" fill="rgb(0,0,0)"/></g></svg>