<?xml version="1.0" encoding="UTF-8" standalone="no"?>
<!-- Generator: Gravit.io -->
<svg xmlns="http://www.w3.org/2000/svg" xmlns:xlink="http://www.w3.org/1999/xlink" style="isolation:isolate" viewBox="0 0 300 300" width="300px" height="300px"><defs><clipPath id="_clipPath_8LeNmNLzYHPrCh9XGUZPp9xQukBFV6uJ"><rect width="300" height="300"/></clipPath></defs><g clip-path="url(#_clipPath_8LeNmNLzYHPrCh9XGUZPp9xQukBFV6uJ)"><path d=" M 152.237 259.23 L 210.87 259.23 L 210.87 259.23 L 179.517 153.193 L 146.289 40 L 111.437 150.753 L 77.536 259.23 L 138.431 259.23 L 138.431 253.631 L 132.483 235.261 L 146.289 236.265 L 160.095 235.261 L 152.237 253.631 L 152.237 259.23 L 152.237 259.23 L 152.237 259.23 L 152.237 259.23 Z  M 181.739 93.855 L 195.938 93.855 L 181.739 105.982 L 197.681 156.162 L 251.013 112.024 C 256.675 107.527 260 100.857 260 93.855 L 260 70.12 C 260 57.012 248.807 46.385 235 46.385 L 164.348 46.385 L 178.841 93.855 L 178.841 93.855 L 181.739 93.855 L 181.739 93.855 L 181.739 93.855 L 181.739 93.855 Z  M 260 259.23 L 260 260 L 260 212.53 L 212.174 212.53 L 225.217 259.23 L 225.217 259.23 L 260 259.23 L 260 259.23 L 260 259.23 Z  M 97.237 93.855 L 40 93.855 L 40 46.385 L 126.957 46.385 L 112.464 93.855 L 112.464 93.211 L 112.464 93.211 L 112.464 93.855 L 97.237 93.855 L 97.237 93.855 Z  M 89.275 156.162 L 48.987 194.361 C 43.312 198.859 40.022 205.511 40 212.53 L 40 236.265 C 40 249.374 46.483 259.23 60.29 259.23 L 61.739 259.23 L 93.623 156.162 L 89.275 156.162 L 93.623 156.162 L 89.275 156.162 Z " fill-rule="evenodd" fill="rgb(0,0,0)"/></g></svg>