<svg xmlns="http://www.w3.org/2000/svg" viewBox="0 0 509.998 89.884" fill="black">
  <path d="M162.399 1.191l28.538 74.083h11.076v15.801h-39.969V75.274h9.051l-5.256-14.372h-31.502l-5.308 14.4h10.582v15.801H99.268V75.274H109.8l26.628-74.083h25.971zm-23.972 44.386h22.321l-11.522-29.405-10.799 29.405zM221.3 1.2v15.6h13.4v58.5h-13.5v15.8h78.6V61.6H283v13.7h-29.6V16.8h13.4V1.2h-45.5zm100.9 0v15.6h13.4v58.5H322v15.8h78.6V61.6h-16.7v13.7h-29.6V16.8h13.3V1.2h-45.4zm86.1 0v15.7h12l29.5 43.6v14.8h-13.3v15.8h45.4V75.3h-13.6V60.4L497.2 17H510V1.2h-42.6v15.7h9.9l-17.4 28-18.3-28h9.7V1.2h-43zM0 1.191h50.4c18.452 0 30.4 10.3 30.4 23 0 13.497-7.841 19.591-15.795 21.197 8.57 1.4 19 7.7 19 21.221 0 13.565-9.986 24.505-26.576 24.5H.037V75.274h13.414V16.923H0V1.191zm31.273 15.732v20.984h20.6c7.56 0 10.394-5.716 10.394-10.974 0-4.616-4.088-10.011-11.395-10.011-7.309-.022-19.572-.022-19.572.001h-.027zm0 58.351h22c7.727 0 10.572-5.778 10.572-10.167 0-5.028-3.506-10.239-10.859-10.239H31.253v20.406h.02z" class="logo-fill"/>
</svg>
