<?xml version="1.0" encoding="UTF-8" standalone="no"?>
<!-- Generator: Gravit.io -->
<svg xmlns="http://www.w3.org/2000/svg" xmlns:xlink="http://www.w3.org/1999/xlink" style="isolation:isolate" viewBox="0 0 250 250" width="250px" height="250px"><defs><clipPath id="_clipPath_4eP7n6oIjB6nwwqTuxN8V7FEiPqndf30"><rect width="250" height="250"/></clipPath></defs><g clip-path="url(#_clipPath_4eP7n6oIjB6nwwqTuxN8V7FEiPqndf30)"><path d=" M 127.237 224.3 L 185.87 224.3 L 185.87 224.3 L 154.517 127.902 L 121.289 25 L 86.437 125.685 L 52.536 224.3 L 113.431 224.3 L 113.431 219.21 L 107.483 202.51 L 121.289 203.423 L 135.095 202.51 L 127.237 219.21 L 127.237 224.3 Z  M 146.739 73.959 L 160.938 73.959 L 146.739 84.983 L 162.681 130.602 L 216.013 90.477 C 221.675 86.388 225 80.325 225 73.959 L 225 52.382 C 225 40.465 213.807 30.805 200 30.805 L 129.348 30.805 L 143.841 73.959 L 143.841 73.959 L 146.739 73.959 Z  M 225 224.3 L 225 225 L 225 181.846 L 177.174 181.846 L 190.217 224.3 L 190.217 224.3 L 225 224.3 Z  M 82.237 73.959 L 25 73.959 L 25 30.805 L 111.957 30.805 L 97.464 73.959 L 97.464 73.374 L 97.464 73.374 L 97.464 73.959 L 82.237 73.959 Z  M 74.275 130.602 L 33.987 165.328 C 28.312 169.418 25.022 175.464 25 181.846 L 25 203.423 C 25 215.34 31.483 224.3 45.29 224.3 L 46.739 224.3 L 78.623 130.602 L 74.275 130.602 L 78.623 130.602 L 74.275 130.602 Z " fill-rule="evenodd" fill="rgb(0,0,0)"/></g></svg>