<svg xmlns="http://www.w3.org/2000/svg" viewBox="0 0 887 305.5" fill="black">
  <path d="M369.9 99.6c2.9 6.1 4.7 6.6 18 7.3-4.5 1.7-14.7 5.5-19.2 7.3.8 1.6 6.1 7.7 11.5 12.8 2 1.8 5 2.8 9.6 2.8 5.6 0 10.6-.1 10.6-.1s-8.9 7.6-11.9 10c5.9 3.6 10.2 6.1 14.5 8.3 5.7 2.9 8.3 2 18.7-4-1.4 3.6-7.7 20.8-8.3 22.9h21.5l3.8-11.4v11.4h12.8c-.1-.3 0-11.4 0-11.4l3.7 11.4h21.7c-.8-2-6.9-19.3-8.3-22.9 10.2 5.9 12.8 6.9 18.5 4 4.4-2.2 8.4-4.7 14.5-8.3-2.9-2.4-11.9-10-11.9-10s5.1.1 10.6.1c4.7 0 7.7-1 9.5-2.8 5.5-5.1 10.8-11.2 11.6-12.8-4.5-1.8-14.7-5.6-19-7.3 13.2-.7 14.9-1.3 17.9-7.3 2.5-5.1 5.5-11.1 8-18.5-7 .5-16.5 1.3-21.7 1.2 7.4-5.4 13.3-7.7 13.9-13.4 1.5-12.1 1.9-27 1.9-27l-26.5 17.9s3.6-4.9 6.4-9.2c5.5-8.4 7-14.3-6.4-36.9-.5.8-13.6 22.5-13.4 22.5 3.7-10.5 4.7-18.1 3.2-23.1S472.4 1.7 466.1.1c0 1-5.6 57.6-5.6 57.6 12.8 5.9 21.7 18.8 21.7 33.7 0 20.6-16.8 37.2-37.2 37.2-20.4 0-37-16.6-37-37.2 0-14.9 8.8-27.8 21.6-33.7 0 0-5.6-56.6-5.8-57.6-6 1.7-17.9 8.1-19.4 13-1.6 5-.5 12.6 3.2 23.1.1 0-13-21.9-13.3-22.5-13.7 22.6-12 28.6-6.5 36.9 2.8 4.3 6.5 9.2 6.5 9.2l-26.6-17.9s.4 14.8 1.8 27c.8 5.7 6.6 8.1 14 13.4-5.2.1-14.7-.8-21.7-1.2 2.6 7.4 5.6 13.4 8.1 18.5" class="st0"/>
  <path d="M444.5 120.7c11.4 0 14.3-3.3 14.3-3.3V100h13.8c2.4-13.3-1.1-22.1-2.2-23.8h-50.3c-1.2 1.7-4.7 10.5-2.3 23.8h13.7v17.4s1.5 3.3 13 3.3M0 210.1h57.8c26.6 0 34.8 13.2 34.8 25.2 0 10.6-3.7 15.8-12.8 19.8 9.1 3.3 14.8 8.7 14.8 21.3 0 15.6-8.3 26.7-36.7 26.7H0v-93zm55.7 36c9.1 0 12.3-1.5 12.3-8 0-5.6-2.7-8.1-12-8.1H25.8v16.2h29.9zm-29.9 37.3h31c10 0 12.8-3.3 12.8-9.6s-3.1-9.3-13.5-9.3H25.8v18.9zm99.4-73.3h85.6v18.4h-59.9v17.7h44.8v18.3h-44.8v20.1h62.4v18.6h-88.1zm117.8 0h25.8V284h52.4v19.2H243zm97.6 77.4l17-14.2c6.9 7.7 18 12.9 33.6 12.9 13.9 0 19.6-2.7 19.6-8.7 0-6.7-5.1-7.8-23.1-10.1-19.5-2.7-43.3-6.6-43.3-29.8 0-19.9 17-29.2 42.8-29.2 22.4 0 35.6 5.6 46 16l-15.9 14.2c-4.5-5.4-13.7-11.5-29.3-11.5-13.7 0-19 2.5-19 8.4 0 6.3 5.4 7.7 24.4 9.7 20.3 2.3 42.7 7.4 42.7 29.9 0 20.3-14.1 30.4-44.5 30.4-25 0-40.1-7.1-51-18m115.9-58.1v-19.3h88.6v19.3h-30.6v73.8h-25.6v-73.8zm121.9 73.8h-25l37.6-93.1h30.7l37.8 93.1h-27.1l-6.7-17.3H585l-6.6 17.3zm26.9-71l-13.6 35.7h27.1l-13.5-35.7zm80.3-22.1h85.6v18.4h-59.9v20.1h47.5V267h-47.5v36.2h-25.7zm115.8 0H887v18.4h-59.9v20.1h47.5V267h-47.5v36.2h-25.7z" class="st0"/>
</svg>
