<svg xmlns="http://www.w3.org/2000/svg" width="283.461" height="36.311" fill="black">
  <path d="M143.042 15.24c-5.066-.977-9.623-2.839-9.675-7.178 0-.109.002-.229.01-.346.26-3.4 4.209-5.277 7.875-5.29 3.546-.01 6.2 1.5 8.6 4.313l3.699-2.92C148.038.084 145.395.015 141.274 0c-2.31-.002-5.752.564-8.555 2.2-2.803 1.619-4.97 4.183-4.98 8.371v.172c.044 7.5 8.8 8.8 11.7 9.4 3.424.7 10 2.2 10.1 7.919-.057 3.822-4.292 5.851-7.732 5.855h-.052c-2.997-.005-7.674-.634-10.849-5.121l-4.046 3.083c3.293 2.7 7.1 4.4 15 4.437 8.122-.032 14.234-4.104 14.243-11.439C156.084 18.3 149.2 16.4 143 15.24zM46 35.4h23.2v-2.2H52.9V18.7H66v-2.1l-13.1.1v-14h16.3V.6H46zM230.579 1.095c2.143 0 4.3.7 5.9 2.162 1.532 1.4 2.6 3.5 2.7 6.325h5.96c-.229-5.137-3.426-9.493-14.517-9.559-11.382.076-17.902 4.937-17.974 18.09.068 13.1 6.7 18.1 17.4 18.1 7.943-.007 11.674-1.866 13.591-4.479 1.058-1.461 1.344-2.572 1.393-4.049h-4.637c-.262 3.95-3.71 7.144-8.314 7.2-2.747 0-5.836-.417-8.229-2.749-2.389-2.333-3.981-6.463-3.981-13.669.002-7.729 1.548-12.075 3.718-14.514C225.744 1.5 228.5 1.1 230.6 1.095zM17.7 30.7l-.4 1.3L7 .6H0l12.5 34.8h6.4L31.9.6h-3.4zm87.008-10.758l-.299-.489.538-.194c3.237-1.185 7.718-3.742 7.713-9.392-.023-5.606-4.24-9.241-15.561-9.295L83.866.569V35.4h6.91V20.149h7.035l9.381 15.251h7.04l-9.524-15.458zm-9.196-1.362h-.003l-4.733-.008V2.245h5.671c5.531 0 9.2 3.5 9.2 7.75C105.596 14.2 101.9 18.6 95.5 18.58zM181.811.57L165.685 35.4h3.06l5.612-11.922.123-.268h17.086l5 12.189h6.532L188.269.57h-6.458zm-6.442 20.63l7.727-16.542.448-.956 7.241 17.497h-15.416zM283.5 2.7V.6h-23.2v34.8h23.2v-2.2h-16.3V18.7h13v-2.1l-13 .1v-14z"/>
</svg>
